<mxfile host="app.diagrams.net" modified="2023-06-10T23:05:40.849Z" agent="Mozilla/5.0 (Windows NT 10.0; Win64; x64) AppleWebKit/537.36 (KHTML, like Gecko) Chrome/114.0.0.0 Safari/537.36" etag="K_IKtINs99atFZoNlbSt" version="21.3.7" type="github">
  <diagram name="Seite-1" id="RhqnUJ8_BZfnfBdpoCaN">
    <mxGraphModel dx="2261" dy="804" grid="1" gridSize="10" guides="1" tooltips="1" connect="1" arrows="1" fold="1" page="1" pageScale="1" pageWidth="827" pageHeight="1169" math="0" shadow="0">
      <root>
        <mxCell id="0" />
        <mxCell id="1" parent="0" />
        <mxCell id="HTTXuy3MX17CqakG4K-P-2" value="" style="rounded=0;whiteSpace=wrap;html=1;fillColor=#ffe6cc;strokeColor=#d79b00;" vertex="1" parent="1">
          <mxGeometry x="-290" y="30" width="1390" height="900" as="geometry" />
        </mxCell>
        <mxCell id="HTTXuy3MX17CqakG4K-P-3" value="" style="whiteSpace=wrap;html=1;aspect=fixed;" vertex="1" parent="1">
          <mxGeometry x="-260" y="80" width="310" height="310" as="geometry" />
        </mxCell>
        <mxCell id="HTTXuy3MX17CqakG4K-P-4" value="" style="whiteSpace=wrap;html=1;aspect=fixed;" vertex="1" parent="1">
          <mxGeometry x="-260" y="430" width="310" height="310" as="geometry" />
        </mxCell>
        <mxCell id="HTTXuy3MX17CqakG4K-P-5" value="" style="rounded=0;whiteSpace=wrap;html=1;" vertex="1" parent="1">
          <mxGeometry x="80" y="60" width="990" height="830" as="geometry" />
        </mxCell>
        <mxCell id="HTTXuy3MX17CqakG4K-P-6" value="Kino" style="text;strokeColor=none;fillColor=#FF864A;html=1;fontSize=24;fontStyle=1;verticalAlign=middle;align=center;" vertex="1" parent="1">
          <mxGeometry x="-290" width="120" height="50" as="geometry" />
        </mxCell>
        <mxCell id="HTTXuy3MX17CqakG4K-P-8" value="&lt;div style=&quot;text-align: left;&quot;&gt;&lt;span style=&quot;font-size: 17px; background-color: initial;&quot;&gt;Personal-&lt;/span&gt;&lt;/div&gt;&lt;font style=&quot;font-size: 17px;&quot;&gt;&lt;div style=&quot;text-align: left;&quot;&gt;&lt;span style=&quot;background-color: initial;&quot;&gt;Management-&lt;/span&gt;&lt;/div&gt;&lt;div style=&quot;text-align: left;&quot;&gt;&lt;span style=&quot;background-color: initial;&quot;&gt;System&lt;/span&gt;&lt;/div&gt;&lt;/font&gt;" style="text;strokeColor=#9673a6;fillColor=#e1d5e7;html=1;fontSize=24;fontStyle=1;verticalAlign=middle;align=center;" vertex="1" parent="1">
          <mxGeometry x="-250" y="70" width="140" height="70" as="geometry" />
        </mxCell>
        <mxCell id="HTTXuy3MX17CqakG4K-P-11" value="..." style="whiteSpace=wrap;html=1;shape=mxgraph.basic.document;fillColor=#e1d5e7;strokeColor=#9673a6;" vertex="1" parent="1">
          <mxGeometry x="-240" y="180" width="60" height="70" as="geometry" />
        </mxCell>
        <mxCell id="HTTXuy3MX17CqakG4K-P-12" value="..." style="whiteSpace=wrap;html=1;shape=mxgraph.basic.document;fillColor=#e1d5e7;strokeColor=#9673a6;" vertex="1" parent="1">
          <mxGeometry x="-160" y="180" width="60" height="70" as="geometry" />
        </mxCell>
        <mxCell id="HTTXuy3MX17CqakG4K-P-13" value="..." style="whiteSpace=wrap;html=1;shape=mxgraph.basic.document;fillColor=#e1d5e7;strokeColor=#9673a6;" vertex="1" parent="1">
          <mxGeometry x="-80" y="180" width="60" height="70" as="geometry" />
        </mxCell>
        <mxCell id="HTTXuy3MX17CqakG4K-P-14" value="..." style="whiteSpace=wrap;html=1;shape=mxgraph.basic.document;fillColor=#e1d5e7;strokeColor=#9673a6;" vertex="1" parent="1">
          <mxGeometry x="-210" y="280" width="60" height="70" as="geometry" />
        </mxCell>
        <mxCell id="HTTXuy3MX17CqakG4K-P-15" value="..." style="whiteSpace=wrap;html=1;shape=mxgraph.basic.document;fillColor=#e1d5e7;strokeColor=#9673a6;" vertex="1" parent="1">
          <mxGeometry x="-120" y="280" width="60" height="70" as="geometry" />
        </mxCell>
        <mxCell id="HTTXuy3MX17CqakG4K-P-16" value="" style="verticalLabelPosition=bottom;verticalAlign=top;html=1;shape=mxgraph.basic.x;fillColor=#f51105;strokeColor=#b85450;" vertex="1" parent="1">
          <mxGeometry x="-225" y="140" width="240" height="240" as="geometry" />
        </mxCell>
        <mxCell id="HTTXuy3MX17CqakG4K-P-17" value="&lt;div style=&quot;text-align: left;&quot;&gt;&lt;span style=&quot;font-size: 17px;&quot;&gt;Buchhaltungs-&lt;/span&gt;&lt;/div&gt;&lt;div style=&quot;text-align: left;&quot;&gt;&lt;span style=&quot;font-size: 17px;&quot;&gt;System&lt;/span&gt;&lt;/div&gt;" style="text;strokeColor=#6c8ebf;fillColor=#dae8fc;html=1;fontSize=24;fontStyle=1;verticalAlign=middle;align=center;" vertex="1" parent="1">
          <mxGeometry x="-250" y="410" width="140" height="70" as="geometry" />
        </mxCell>
        <mxCell id="HTTXuy3MX17CqakG4K-P-18" value="..." style="whiteSpace=wrap;html=1;shape=mxgraph.basic.document;fillColor=#dae8fc;strokeColor=#6c8ebf;" vertex="1" parent="1">
          <mxGeometry x="-225" y="510" width="60" height="70" as="geometry" />
        </mxCell>
        <mxCell id="HTTXuy3MX17CqakG4K-P-19" value="..." style="whiteSpace=wrap;html=1;shape=mxgraph.basic.document;fillColor=#dae8fc;strokeColor=#6c8ebf;" vertex="1" parent="1">
          <mxGeometry x="-80" y="620" width="60" height="70" as="geometry" />
        </mxCell>
        <mxCell id="HTTXuy3MX17CqakG4K-P-20" value="..." style="whiteSpace=wrap;html=1;shape=mxgraph.basic.document;fillColor=#dae8fc;strokeColor=#6c8ebf;" vertex="1" parent="1">
          <mxGeometry x="-160" y="620" width="60" height="70" as="geometry" />
        </mxCell>
        <mxCell id="HTTXuy3MX17CqakG4K-P-21" value="..." style="whiteSpace=wrap;html=1;shape=mxgraph.basic.document;fillColor=#dae8fc;strokeColor=#6c8ebf;" vertex="1" parent="1">
          <mxGeometry x="-240" y="620" width="60" height="70" as="geometry" />
        </mxCell>
        <mxCell id="HTTXuy3MX17CqakG4K-P-22" value="..." style="whiteSpace=wrap;html=1;shape=mxgraph.basic.document;fillColor=#dae8fc;strokeColor=#6c8ebf;" vertex="1" parent="1">
          <mxGeometry x="-150" y="515" width="60" height="70" as="geometry" />
        </mxCell>
        <mxCell id="HTTXuy3MX17CqakG4K-P-23" value="..." style="whiteSpace=wrap;html=1;shape=mxgraph.basic.document;fillColor=#dae8fc;strokeColor=#6c8ebf;" vertex="1" parent="1">
          <mxGeometry x="-70" y="515" width="60" height="70" as="geometry" />
        </mxCell>
        <mxCell id="HTTXuy3MX17CqakG4K-P-24" value="" style="verticalLabelPosition=bottom;verticalAlign=top;html=1;shape=mxgraph.basic.x;fillColor=#f51105;strokeColor=#b85450;" vertex="1" parent="1">
          <mxGeometry x="-230" y="480" width="240" height="240" as="geometry" />
        </mxCell>
        <mxCell id="HTTXuy3MX17CqakG4K-P-25" value="&lt;div style=&quot;text-align: left;&quot;&gt;&lt;span style=&quot;background-color: initial; font-size: 17px;&quot;&gt;Kinoticket-&lt;/span&gt;&lt;/div&gt;&lt;div style=&quot;text-align: left;&quot;&gt;&lt;span style=&quot;background-color: initial; font-size: 17px;&quot;&gt;Reservierungs-&lt;/span&gt;&lt;/div&gt;&lt;font style=&quot;font-size: 17px;&quot;&gt;&lt;div style=&quot;text-align: left;&quot;&gt;&lt;span style=&quot;background-color: initial;&quot;&gt;System&lt;/span&gt;&lt;/div&gt;&lt;/font&gt;" style="text;strokeColor=#d79b00;fillColor=#ff864a;html=1;fontSize=24;fontStyle=1;verticalAlign=middle;align=center;" vertex="1" parent="1">
          <mxGeometry x="90" y="50" width="140" height="80" as="geometry" />
        </mxCell>
        <mxCell id="HTTXuy3MX17CqakG4K-P-26" value="" style="whiteSpace=wrap;html=1;aspect=fixed;fillColor=#d5e8d4;strokeColor=#82b366;" vertex="1" parent="1">
          <mxGeometry x="120" y="340" width="225" height="225" as="geometry" />
        </mxCell>
        <mxCell id="HTTXuy3MX17CqakG4K-P-27" value="" style="rounded=0;whiteSpace=wrap;html=1;fillColor=#f8cecc;strokeColor=#b85450;" vertex="1" parent="1">
          <mxGeometry x="110" y="140" width="330" height="180" as="geometry" />
        </mxCell>
        <mxCell id="HTTXuy3MX17CqakG4K-P-28" value="" style="rounded=0;whiteSpace=wrap;html=1;fillColor=#ffcc99;strokeColor=#36393d;" vertex="1" parent="1">
          <mxGeometry x="110" y="670" width="380" height="180" as="geometry" />
        </mxCell>
        <mxCell id="HTTXuy3MX17CqakG4K-P-29" value="" style="rounded=0;whiteSpace=wrap;html=1;fillColor=#fff2cc;strokeColor=#d6b656;" vertex="1" parent="1">
          <mxGeometry x="400" y="515" width="295" height="130" as="geometry" />
        </mxCell>
        <mxCell id="HTTXuy3MX17CqakG4K-P-30" value="" style="rounded=0;whiteSpace=wrap;html=1;fillColor=#dae8fc;strokeColor=#6c8ebf;" vertex="1" parent="1">
          <mxGeometry x="520" y="80" width="270" height="420" as="geometry" />
        </mxCell>
        <mxCell id="HTTXuy3MX17CqakG4K-P-31" value="" style="rounded=0;whiteSpace=wrap;html=1;fillColor=#e1d5e7;strokeColor=#9673a6;" vertex="1" parent="1">
          <mxGeometry x="810" y="165" width="225" height="165" as="geometry" />
        </mxCell>
        <mxCell id="HTTXuy3MX17CqakG4K-P-32" value="" style="whiteSpace=wrap;html=1;aspect=fixed;fillColor=#cdeb8b;strokeColor=#36393d;" vertex="1" parent="1">
          <mxGeometry x="800" y="600" width="225" height="225" as="geometry" />
        </mxCell>
        <mxCell id="HTTXuy3MX17CqakG4K-P-33" value="..." style="whiteSpace=wrap;html=1;shape=mxgraph.basic.document;fillColor=#dae8fc;strokeColor=#6c8ebf;" vertex="1" parent="1">
          <mxGeometry x="-140" y="780" width="60" height="70" as="geometry" />
        </mxCell>
        <mxCell id="HTTXuy3MX17CqakG4K-P-34" value="" style="verticalLabelPosition=bottom;verticalAlign=top;html=1;shape=mxgraph.basic.x;fillColor=#f51105;strokeColor=#b85450;" vertex="1" parent="1">
          <mxGeometry x="-145" y="785" width="70" height="65" as="geometry" />
        </mxCell>
      </root>
    </mxGraphModel>
  </diagram>
</mxfile>
